<svg id="Capa_1" enable-background="new 0 0 512 512" height="512" viewBox="0 0 512 512" width="512" xmlns="http://www.w3.org/2000/svg"><g><path d="m471.305 118.465c41.291 0 41.124-64.05-2.196-64.05h-128.11c-4.135 0-7.487 3.352-7.487 7.487s3.352 7.487 7.487 7.487h128.109c20.101 0 23.482 32.106 2.196 34.101-14.097 0-25.566 11.473-25.566 25.576v14.132h-29.828v-13.004c0-14.097-11.468-25.566-25.565-25.566h-176.446c-21.625 0-39.632 18.006-39.632 39.631 0 13.602-11.066 24.668-24.667 24.668h-99.907c-15.034-1.409-23.253-9.632-24.658-24.668 0-13.596 11.061-24.657 24.658-24.657h24.068c16.658 0 30.548-13.889 30.548-30.547 0-16.844-13.704-30.547-30.548-30.547h-26.964c-13.265-1.242-20.519-8.496-21.762-21.762 0-12.005 9.762-21.772 21.762-21.772h166.653c12.02 1.128 18.596 7.704 19.726 19.726 0 19.128 15.562 34.69 34.69 34.69h40.5c4.135 0 7.487-3.352 7.487-7.487s-3.352-7.487-7.487-7.487h-40.5c-10.872 0-19.716-8.845-19.716-19.716 0-18.931-15.77-34.7-34.7-34.7h-166.653c-20.256 0-36.736 16.485-36.736 36.747 0 20.046 16.692 36.736 36.736 36.736h26.963c8.588 0 15.574 6.986 15.574 15.573-.897 9.486-6.088 14.677-15.574 15.573h-24.067c-21.853 0-39.632 17.778-39.632 39.631 0 21.629 17.999 39.642 39.632 39.642h99.907c21.859 0 39.642-17.783 39.642-39.642 1.409-15.029 9.628-23.248 24.658-24.657h176.445c5.84 0 10.591 4.752 10.591 10.592v13.004h-22.993c-4.135 0-7.487 3.352-7.487 7.487s3.352 7.487 7.487 7.487h12.765l-9.136 161.515-42.606-.005v-64.294c.13-7.487-5.037-9.889-11.453-6.35l-113.114 70.645h-41.159v-64.294c-.019-7.264-4.894-10.014-11.453-6.35l-113.115 70.644h-31.127c-4.135 0-7.487 3.352-7.487 7.487v177.342c0 4.135 3.352 7.487 7.487 7.487h471.389c4.135 0 7.487-3.352 7.487-7.487v-43.742c0-4.135-3.352-7.487-7.487-7.487s-7.487 3.352-7.487 7.487v36.255h-104.24v-162.363h104.24v93.311c0 4.135 3.352 7.487 7.487 7.487s7.487-3.352 7.487-7.487v-100.799c0-4.135-3.352-7.487-7.487-7.487h-11.855l-9.136-161.515h12.765c4.135 0 7.487-3.352 7.487-7.487s-3.352-7.487-7.487-7.487h-19.996v-14.132c.001-5.846 4.752-10.602 10.593-10.602zm-147.313 150.427v50.791h-81.325zm-165.727 0v50.791h-81.325zm-133.233 65.766h337.201v162.368h-337.201zm427.913-176.485 2.704 47.801h-52.646l2.704-47.801zm9.135 161.511h-65.51l3.213-56.807h59.084zm-4.06-71.782h-57.39l1.525-26.953h54.34z"/><path d="m165.752 380.843h-33.751c-4.135 0-7.487 3.352-7.487 7.487s3.352 7.487 7.487 7.487h26.264v28.95h-94.836v-28.95h35.938c4.135 0 7.487-3.352 7.487-7.487s-3.352-7.487-7.487-7.487h-43.425c-4.135 0-7.487 3.352-7.487 7.487v43.924c0 4.135 3.352 7.487 7.487 7.487h109.81c4.135 0 7.487-3.352 7.487-7.487v-43.924c0-4.135-3.351-7.487-7.487-7.487z"/><path d="m328.917 380.843h-109.81c-4.135 0-7.487 3.352-7.487 7.487v43.924c0 4.135 3.352 7.487 7.487 7.487h109.81c4.135 0 7.487-3.352 7.487-7.487v-43.924c0-4.135-3.352-7.487-7.487-7.487zm-7.487 43.924h-94.836v-28.95h94.836z"/></g></svg>