<svg id="Capa_1" enable-background="new 0 0 512.23 512.23" height="512" viewBox="0 0 512.23 512.23" width="512" xmlns="http://www.w3.org/2000/svg"><g><path d="m217.54 438.085h-20.527v-62.046c0-15.889-6.738-31.136-18.486-41.833l-64.553-58.774c-11.865-10.802-32.789-11.885-45.813-2.564v-114.404c0-18.59-15.488-34.08-34.08-34.08-18.792 0-34.08 15.288-34.08 34.08v32.99c0 4.142 3.358 7.5 7.5 7.5s7.5-3.358 7.5-7.5v-32.99c0-10.521 8.559-19.08 19.08-19.08 11.624 1.1 17.985 7.46 19.08 19.08v143.84c0 .068.008.134.01.202.057 10.167 4.397 19.901 11.936 26.732l54.319 49.212c3.07 2.78 7.812 2.547 10.594-.522 2.781-3.07 2.547-7.813-.522-10.594l-54.319-49.212c-20.179-18.282 8.56-49.933 28.696-31.598l64.553 58.774c8.633 7.86 13.585 19.065 13.585 30.741v62.046h-94.663v-23.211c0-1.979-.782-3.878-2.177-5.283l-60.412-60.87c-6.296-7.486-9.761-16.981-9.761-26.767v-97.82c0-4.142-3.358-7.5-7.5-7.5s-7.5 3.358-7.5 7.5v97.82c0 13.44 4.802 26.476 13.522 36.706.123.144.251.283.384.417l58.443 58.887v20.122h-22.889c-4.142 0-7.5 3.358-7.5 7.5v58.851c0 4.142 3.358 7.5 7.5 7.5h168.08c4.142 0 7.5-3.358 7.5-7.5v-58.851c0-4.143-3.358-7.501-7.5-7.501zm-7.5 58.851h-153.08v-43.851h153.08z"/><path d="m478.148 124.384c-18.792 0-34.082 15.289-34.082 34.082v114.4c-14.004-11.072-33.944-8.234-45.808 2.567l-64.553 58.774c-11.749 10.696-18.487 25.944-18.487 41.833v62.045h-20.528c-4.142 0-7.5 3.358-7.5 7.5v58.85c0 4.142 3.358 7.5 7.5 7.5h76.11c4.142 0 7.5-3.358 7.5-7.5s-3.358-7.5-7.5-7.5h-68.61v-43.85h153.08v43.85h-51.78c-4.142 0-7.5 3.358-7.5 7.5s3.358 7.5 7.5 7.5h59.28c4.142 0 7.5-3.358 7.5-7.5v-58.85c0-4.142-3.358-7.5-7.5-7.5h-22.891v-20.117s58.703-59.165 58.825-59.308c8.722-10.229 13.526-23.266 13.526-36.708v-163.486c0-18.793-15.289-34.082-34.082-34.082zm19.082 197.566c0 9.788-3.465 19.283-9.764 26.768l-60.411 60.875c-1.394 1.405-2.176 3.304-2.176 5.283v23.207h-94.66v-62.045c0-11.676 4.952-22.88 13.585-30.741l64.553-58.774c6.437-5.861 15.032-7.258 22.994-3.74 7.962 3.519 12.715 10.816 12.715 19.521 0 6.014-2.556 11.778-7.013 15.816l-54.319 49.212c-3.07 2.781-3.304 7.524-.522 10.594 2.78 3.069 7.523 3.305 10.594.522l54.319-49.212c7.589-6.875 11.941-16.692 11.941-26.932v-143.838c0-10.521 8.56-19.082 19.082-19.082s19.082 8.56 19.082 19.082z"/><path d="m406.673 164.154c.36-4.242.554-8.531.554-12.864 0-83.26-67.737-150.997-150.997-150.997-82.172 0-150.997 63.167-150.997 150.997 0 87.503 68.764 150.997 150.997 150.997 76.396 0 144.929-61.202 150.443-138.133zm-275.576-66.112h55.176c14.631 0 13.29 21.077 4.054 21.077-16.799 0-30.466 13.667-30.466 30.466v11.982c0 8.528-6.938 15.466-15.466 15.466h-21.707c-1.604-8.339-6.458-43.573 8.409-78.991zm125.133 189.245c-60.801 0-112.407-40.108-129.76-95.254h17.925c16.799 0 30.466-13.667 30.466-30.466v-11.982c0-8.528 6.938-15.466 15.466-15.466 31.088-2.92 26.08-51.077-4.054-51.077h-47.635c23.021-39.513 65.378-66.438 114.012-67.701v30.123c0 4.142 3.358 7.5 7.5 7.5s7.5-3.358 7.5-7.5v-29.686c71.181 5.947 126.982 69.027 124.482 140.336h-26.402c-13.744 1.283-21.258 8.796-22.54 22.54-1.104 11.765-7.541 18.198-19.31 19.3-10.642 0-19.3-8.658-19.3-19.3v-49.05c-1.487-15.816-10.141-24.47-25.96-25.96-6.049 0-10.97-4.921-10.97-10.97v-14.53c0-4.142-3.358-7.5-7.5-7.5s-7.5 3.358-7.5 7.5v14.53c0 14.32 11.65 25.97 25.97 25.97 6.677.632 10.331 4.286 10.96 10.96v49.05c0 18.913 15.387 34.3 34.3 34.3 18.718 0 34.31-15.581 34.31-34.3.421-4.598 2.934-7.112 7.54-7.54h25.047c-9.626 65.626-66.291 116.173-134.547 116.173z"/></g></svg>