<svg id="Capa_1" enable-background="new 0 0 512 512" height="512" viewBox="0 0 512 512" width="512" xmlns="http://www.w3.org/2000/svg"><g><g><path d="m267.692 362.204h-46.884c-4.142 0-7.5-3.358-7.5-7.5s3.358-7.5 7.5-7.5h46.884c4.142 0 7.5 3.358 7.5 7.5s-3.358 7.5-7.5 7.5z"/></g><g><g><path d="m128.167 465.749c-14.729 0-26.713-11.992-26.713-26.731s11.983-26.731 26.713-26.731 26.713 11.992 26.713 26.731-11.983 26.731-26.713 26.731zm0-38.463c-6.458 0-11.713 5.263-11.713 11.731 0 6.469 5.254 11.731 11.713 11.731s11.713-5.263 11.713-11.731-5.254-11.731-11.713-11.731z"/></g><g><path d="m396.324 465.749c-14.729 0-26.713-11.992-26.713-26.731s11.983-26.731 26.713-26.731 26.713 11.992 26.713 26.731-11.983 26.731-26.713 26.731zm0-38.463c-6.458 0-11.713 5.263-11.713 11.731 0 6.469 5.254 11.731 11.713 11.731s11.713-5.263 11.713-11.731-5.254-11.731-11.713-11.731z"/></g><path d="m504.5 402.28h-16v-25.63c0-4.142-3.358-7.5-7.5-7.5s-7.5 3.358-7.5 7.5v25.63h-28.859c-11.1-14.587-28.624-24.025-48.316-24.025s-37.217 9.438-48.316 24.025h-36.509v-74.37h129.363c5.446-.735 7.873-3.834 7.281-9.297l-14.098-57.11c-4.144-16.788-19.115-28.513-36.407-28.513h-142.343c-5.091 0-10.083 1.751-14.058 4.932l-95.771 76.632c-2.487 1.99-3.445 5.333-2.391 8.339 1.055 3.005 3.892 5.017 7.077 5.017h146.347v74.37h-120.016c-11.1-14.587-28.624-24.025-48.316-24.025s-37.217 9.438-48.316 24.025h-24.852v-32.5c0-4.142-3.358-7.5-7.5-7.5h-32.5v-12.46c0-12.407 10.093-22.5 22.5-22.5h49.37c1.703 0 3.356-.58 4.686-1.644l132.688-106.179c9.278-7.42 20.928-11.507 32.805-11.507h147.26c24.265 0 45.239 16.462 51.011 40.056l18.179 73.281v22.634c0 4.142 3.358 7.5 7.5 7.5s7.5-3.358 7.5-7.5v-23.55c0-.609-.074-1.215-.221-1.806l-18.394-74.146c-7.413-30.303-34.378-51.468-65.575-51.468h-32.809v-58.229c0-45.491-37.009-82.5-82.5-82.5h-48.88s0-2.848-.013-3.099c-.295-20.394-17.06-36.942-37.487-36.942h-7.27c-4.142 0-7.5 3.358-7.5 7.5s3.358 7.5 7.5 7.5h7.27c12.304 0 22.393 10.008 22.49 22.309 0 .111.01 45.161.01 45.161 0 12.407-10.093 22.5-22.5 22.5h-67.47v-89.971h27.52c4.142 0 7.5-3.358 7.5-7.5s-3.358-7.5-7.5-7.5h-35.02c-4.142 0-7.5 3.358-7.5 7.5v23.475h-45.15c-4.142 0-7.5 3.358-7.5 7.5s3.358 7.5 7.5 7.5h45.15v33.134h-45.15c-4.142 0-7.5 3.358-7.5 7.5s3.358 7.5 7.5 7.5h45.15v18.362c0 4.142 3.358 7.5 7.5 7.5h74.97c19.813 0 36.075-15.447 37.402-34.929h48.978c20.678 0 37.5 16.822 37.5 37.5v58.229h-69.45c-15.269 0-30.247 5.253-42.176 14.794l-130.635 104.535h-46.739c-20.678 0-37.5 16.822-37.5 37.5v104.96c0 4.142 3.358 7.5 7.5 7.5h64.59c9.142 21.993 30.831 37.5 56.078 37.5s46.935-15.507 56.078-37.5h28.765c4.142 0 7.5-3.358 7.5-7.5s-3.358-7.5-7.5-7.5h-24.707c1.4-10.145.248-20.145-3.456-30h154.798c-3.704 9.855-4.856 19.855-3.456 30h-90.49c-4.142 0-7.5 3.358-7.5 7.5s3.358 7.5 7.5 7.5h94.547c9.142 21.993 30.831 37.5 56.078 37.5s46.935-15.507 56.078-37.5h52.097c4.142 0 7.5-3.358 7.5-7.5v-45c0-4.142-3.358-7.5-7.5-7.5zm-157.002-154.29h50.142c10.375 0 19.358 7.035 21.845 17.107l11.802 47.813h-83.789zm-35.998 0h20.998v64.328h-20.998zm-22.5-165.729h-48.88v-15h48.88c37.22 0 67.5 30.28 67.5 67.5v58.229h-15v-58.229c0-28.948-23.551-52.5-52.5-52.5zm-274 295.019h25v25h-25zm53.032 70h-53.032v-30h32.5 23.988c-3.704 9.855-4.856 19.855-3.456 30zm60.135 37.5c-25.206 0-45.711-20.529-45.711-45.763s20.506-45.763 45.711-45.763 45.711 20.529 45.711 45.763-20.505 45.763-45.711 45.763zm168.333-171.87h-124.969l79.08-63.276c1.325-1.06 2.989-1.644 4.686-1.644h41.203zm99.824 171.87c-25.206 0-45.711-20.529-45.711-45.763s20.506-45.763 45.711-45.763 45.711 20.529 45.711 45.763-20.505 45.763-45.711 45.763zm100.676-37.5h-40.541c1.4-10.145.248-20.145-3.456-30h43.997z"/></g></g></svg>