<svg id="Capa_1" enable-background="new 0 0 512 512" height="512" viewBox="0 0 512 512" width="512" xmlns="http://www.w3.org/2000/svg"><g><path d="m445.22 272.28h-19.884c-.811-6.178-2.109-12.285-3.878-18.229-1.181-3.97-5.356-6.23-9.328-5.049-3.97 1.182-6.231 5.358-5.049 9.328 2.121 7.126 3.466 14.522 3.998 21.984.28 3.925 3.546 6.967 7.481 6.967h26.66c28.198 0 51.78 23.567 51.78 51.78 0 28.551-23.229 51.78-51.78 51.78h-166.38c-4.142 0-7.5 3.358-7.5 7.5s3.358 7.5 7.5 7.5h166.38c36.822 0 66.78-29.958 66.78-66.78 0-32.228-23.5-66.781-66.78-66.781z"/><path d="m246.15 390.84h-52.91c-38.659 0-70.11-31.451-70.11-70.11 0-42.89 40.036-76.301 82.133-69.088 3.419.592 6.796-1.25 8.162-4.441 16.267-38.004 53.484-62.561 94.815-62.561 33.23 0 64.608 16.16 83.936 43.228 2.407 3.37 7.091 4.152 10.462 1.745s4.152-7.091 1.745-10.462c-22.593-31.641-60.683-50.551-99.519-49.451-13.017-25.004-34.376-44.436-60.631-55.017-3.842-1.549-8.211.311-9.76 4.153-1.548 3.842.312 8.211 4.153 9.76 21.015 8.469 38.429 23.442 49.942 42.698-37.348 6.281-69.724 30.188-86.545 64.775-51.839-5.306-97.639 39.304-93.611 91.291h-23.302c-38.659 0-70.11-31.451-70.11-70.11 0-42.787 40.023-76.405 82.104-69.081 3.426.593 6.812-1.241 8.18-4.437 16.275-38.011 53.497-62.572 94.825-62.572 2.707 0 5.419.104 8.063.308 4.115.318 7.736-2.77 8.055-6.9s-2.77-7.736-6.9-8.055c-3.026-.234-6.127-.353-9.218-.353-45.412 0-86.496 25.891-106.221 66.431-49.162-5.068-93.888 35.232-93.888 84.659 0 46.93 38.18 85.11 85.11 85.11h25.814c9.595 36.487 42.859 63.48 82.317 63.48h52.91c4.142 0 7.5-3.358 7.5-7.5s-3.359-7.5-7.501-7.5z"/></g></svg>