<svg id="Capa_1" enable-background="new 0 0 512 512" height="512" viewBox="0 0 512 512" width="512" xmlns="http://www.w3.org/2000/svg"><g><path d="m426.583 60.12c-37.651-38.043-90.017-60.12-143.57-60.12-53.952 0-104.676 20.978-142.868 59.095-37.881 37.809-58.923 87.974-59.364 141.424l-53.476 112.1c-1.686 6.128.607 9.705 6.88 10.729l46.589-.695v22.677c0 4.143 3.358 7.5 7.5 7.5s7.5-3.357 7.5-7.5v-30.29c-.445-4.624-2.982-7.124-7.612-7.499l-42.112.63 48.994-102.712c.481-1.008.73-2.111.73-3.229 0-50.079 19.521-97.142 54.967-132.519 35.362-35.292 82.318-54.711 132.272-54.711 102.437 0 188.068 86.341 187.211 188.818-.489 59.431-29.641 115.683-77.981 150.475-1.958 1.409-3.119 3.674-3.119 6.087v57.4c0 4.143 3.358 7.5 7.5 7.5s7.5-3.357 7.5-7.5v-53.604c50.131-37.577 80.584-97.539 81.099-160.234.453-54.077-20.373-105.154-58.64-143.822z"/><path d="m396.624 442.97c-4.142 0-7.5 3.357-7.5 7.5v46.53h-172.13v-52.54c0-12.406-10.093-22.5-22.5-22.5h-76.22c-12.407 0-22.5-10.094-22.5-22.5v-21.44c0-4.143-3.358-7.5-7.5-7.5s-7.5 3.357-7.5 7.5v21.44c0 20.678 16.822 37.5 37.5 37.5h76.22c4.136 0 7.5 3.364 7.5 7.5v60.04c0 4.143 3.358 7.5 7.5 7.5h187.13c4.142 0 7.5-3.357 7.5-7.5v-54.03c0-4.143-3.358-7.5-7.5-7.5z"/><path d="m259.09 240.635h-46.404c-2.672-.498-3.591-2.04-2.759-4.627l21.27-39.363 3.429 9.478c1.745 4.787 5.782 5.795 9.604 4.501 3.895-1.409 5.91-5.709 4.501-9.604l-9.123-25.217c-1.286-3.577-5.226-5.636-8.902-4.717l-27.269 6.938c-4.014 1.021-6.44 5.104-5.419 9.118 1.021 4.015 5.102 6.439 9.118 5.419l10.687-2.719-21.094 39.037c-7.558 14.884-2.914 26.758 15.956 26.758h46.404c4.143 0 7.5-3.358 7.5-7.5s-3.357-7.502-7.499-7.502z"/><path d="m313.324 272.876c2.966-2.892 3.026-7.64.135-10.606l-7.402-7.592h43.845c14.469-.436 23.719-12.686 15.406-27.2l-24.538-42.502c-2.07-3.587-6.66-4.817-10.245-2.745-3.587 2.071-4.816 6.658-2.745 10.245l24.538 42.503c.899 2.529.048 4.096-2.551 4.7h-45.044l6.736-7.996c2.668-3.168 2.264-7.899-.904-10.568-3.17-2.67-7.9-2.264-10.568.904l-17.277 20.509c-2.429 2.863-2.304 7.398.366 10.068l19.643 20.147"/><path d="m304.56 151.564-9.924-1.77c-4.07-.725-7.973 1.989-8.7 6.066-.727 4.078 1.989 7.973 6.067 8.7l26.4 4.708c3.514.628 7.869-1.655 8.55-5.4l7.612-27.035c1.122-3.987-1.2-8.129-5.187-9.252-3.988-1.124-8.13 1.199-9.253 5.187l-2.988 10.615-23.26-37.786c-8.758-13.105-21.758-14.855-31.15.439l-23.548 40.785c-2.071 3.587-.842 8.174 2.745 10.245 3.585 2.071 8.174.842 10.245-2.745l23.548-40.785c1.767-2.065 3.562-2.09 5.387-.076z"/></g></svg>